<svg id="wave1" style="transform:rotate(0deg); transition: 0.3s" viewBox="0 0 1440 250" version="1.1" xmlns="http://www.w3.org/2000/svg">
  <defs>
    <linearGradient id="sw-gradient-0" x1="0" x2="0" y1="1" y2="0">
      <stop stop-color="rgba(243, 106, 62, 1)" offset="0%"></stop>
      <stop stop-color="rgba(255, 179, 11, 1)" offset="100%"></stop>
    </linearGradient>
  </defs>
  <path
    style="transform:translate(0, 0px); opacity:0.5"
    fill="url(#sw-gradient-0)"
    d="M0,36L60,42C120,48,240,60,360,54C480,48,600,24,720,42C840,60,960,120,1080,138C1200,156,1320,132,1440,138C1560,144,1680,180,1800,186C1920,192,2040,168,2160,180C2280,192,2400,240,2520,240C2640,240,2760,192,2880,180C3000,168,3120,192,3240,198C3360,204,3480,192,3600,174C3720,156,3840,132,3960,108C4080,84,4200,60,4320,60C4440,60,4560,84,4680,78C4800,72,4920,36,5040,48C5160,60,5280,120,5400,120C5520,120,5640,60,5760,42C5880,24,6000,48,6120,90C6240,132,6360,192,6480,222C6600,252,6720,252,6840,234C6960,216,7080,180,7200,156C7320,132,7440,120,7560,114C7680,108,7800,108,7920,126C8040,144,8160,180,8280,174C8400,168,8520,120,8580,96L8640,72L8640,360L8580,360C8520,360,8400,360,8280,360C8160,360,8040,360,7920,360C7800,360,7680,360,7560,360C7440,360,7320,360,7200,360C7080,360,6960,360,6840,360C6720,360,6600,360,6480,360C6360,360,6240,360,6120,360C6000,360,5880,360,5760,360C5640,360,5520,360,5400,360C5280,360,5160,360,5040,360C4920,360,4800,360,4680,360C4560,360,4440,360,4320,360C4200,360,4080,360,3960,360C3840,360,3720,360,3600,360C3480,360,3360,360,3240,360C3120,360,3000,360,2880,360C2760,360,2640,360,2520,360C2400,360,2280,360,2160,360C2040,360,1920,360,1800,360C1680,360,1560,360,1440,360C1320,360,1200,360,1080,360C960,360,840,360,720,360C600,360,480,360,360,360C240,360,120,360,60,360L0,360Z"></path>
</svg>
