<svg id="wave0" style="transform:rotate(0deg); transition: 0.3s" viewBox="0 0 1440 250" version="1.1" xmlns="http://www.w3.org/2000/svg">
  <defs>
    <linearGradient id="sw-gradient-0" x1="0" x2="0" y1="1" y2="0">
      <stop stop-color="rgba(243, 106, 62, 1)" offset="0%"></stop>
      <stop stop-color="rgba(255, 179, 11, 1)" offset="100%"></stop>
    </linearGradient>
  </defs>
  <path
    style="transform:translate(0, 0px); opacity:0.7"
    fill="url(#sw-gradient-0)"
    d="M0,108L60,132C120,156,240,204,360,192C480,180,600,108,720,90C840,72,960,108,1080,132C1200,156,1320,168,1440,156C1560,144,1680,108,1800,84C1920,60,2040,48,2160,54C2280,60,2400,84,2520,90C2640,96,2760,84,2880,114C3000,144,3120,216,3240,240C3360,264,3480,240,3600,198C3720,156,3840,96,3960,96C4080,96,4200,156,4320,150C4440,144,4560,72,4680,90C4800,108,4920,216,5040,246C5160,276,5280,228,5400,174C5520,120,5640,60,5760,60C5880,60,6000,120,6120,162C6240,204,6360,228,6480,204C6600,180,6720,108,6840,78C6960,48,7080,60,7200,54C7320,48,7440,24,7560,54C7680,84,7800,168,7920,186C8040,204,8160,156,8280,156C8400,156,8520,204,8580,228L8640,252L8640,360L8580,360C8520,360,8400,360,8280,360C8160,360,8040,360,7920,360C7800,360,7680,360,7560,360C7440,360,7320,360,7200,360C7080,360,6960,360,6840,360C6720,360,6600,360,6480,360C6360,360,6240,360,6120,360C6000,360,5880,360,5760,360C5640,360,5520,360,5400,360C5280,360,5160,360,5040,360C4920,360,4800,360,4680,360C4560,360,4440,360,4320,360C4200,360,4080,360,3960,360C3840,360,3720,360,3600,360C3480,360,3360,360,3240,360C3120,360,3000,360,2880,360C2760,360,2640,360,2520,360C2400,360,2280,360,2160,360C2040,360,1920,360,1800,360C1680,360,1560,360,1440,360C1320,360,1200,360,1080,360C960,360,840,360,720,360C600,360,480,360,360,360C240,360,120,360,60,360L0,360Z"></path>
</svg>
