<svg id="wave2" style="transform:rotate(0deg); transition: 0.3s" viewBox="0 0 1440 250" version="1.1" xmlns="http://www.w3.org/2000/svg">
  <defs>
    <linearGradient id="sw-gradient-0" x1="0" x2="0" y1="1" y2="0">
      <stop stop-color="rgba(243, 106, 62, 1)" offset="0%"></stop>
      <stop stop-color="rgba(255, 179, 11, 1)" offset="100%"></stop>
    </linearGradient>
  </defs>
  <path
    style="transform:translate(0, 0px); opacity:0.9"
    fill="url(#sw-gradient-0)"
    d="M0,324L60,270C120,216,240,108,360,102C480,96,600,192,720,222C840,252,960,216,1080,192C1200,168,1320,156,1440,126C1560,96,1680,48,1800,66C1920,84,2040,168,2160,210C2280,252,2400,252,2520,210C2640,168,2760,84,2880,42C3000,0,3120,0,3240,6C3360,12,3480,24,3600,60C3720,96,3840,156,3960,192C4080,228,4200,240,4320,222C4440,204,4560,156,4680,156C4800,156,4920,204,5040,192C5160,180,5280,108,5400,66C5520,24,5640,12,5760,6C5880,0,6000,0,6120,30C6240,60,6360,120,6480,120C6600,120,6720,60,6840,54C6960,48,7080,96,7200,114C7320,132,7440,120,7560,114C7680,108,7800,108,7920,144C8040,180,8160,252,8280,276C8400,300,8520,276,8580,264L8640,252L8640,360L8580,360C8520,360,8400,360,8280,360C8160,360,8040,360,7920,360C7800,360,7680,360,7560,360C7440,360,7320,360,7200,360C7080,360,6960,360,6840,360C6720,360,6600,360,6480,360C6360,360,6240,360,6120,360C6000,360,5880,360,5760,360C5640,360,5520,360,5400,360C5280,360,5160,360,5040,360C4920,360,4800,360,4680,360C4560,360,4440,360,4320,360C4200,360,4080,360,3960,360C3840,360,3720,360,3600,360C3480,360,3360,360,3240,360C3120,360,3000,360,2880,360C2760,360,2640,360,2520,360C2400,360,2280,360,2160,360C2040,360,1920,360,1800,360C1680,360,1560,360,1440,360C1320,360,1200,360,1080,360C960,360,840,360,720,360C600,360,480,360,360,360C240,360,120,360,60,360L0,360Z"></path>
</svg>
